{"title":"Teen Wolf S05E11 The Last Chimera 1080P WEB-DL DD5 1 H 264","uid":13162077,"size":1697529050,"categoryP":"video","categoryS":"hd___tv_shows","magnet":"?xt=urn:btih:817756b5f4e2d48be5d53fb5f0b9691d2622d579&amp;dn=Teen+Wolf+S05E11+The+Last+Chimera+1080P+WEB-DL+DD5+1+H+264&amp;tr=udp%3A%2F%2Ftracker.leechers-paradise.org%3A6969&amp;tr=udp%3A%2F%2Fzer0day.ch%3A1337&amp;tr=udp%3A%2F%2Fopen.demonii.com%3A1337&amp;tr=udp%3A%2F%2Ftracker.coppersurfer.tk%3A6969&amp;tr=udp%3A%2F%2Fexodus.desync.com%3A6969","seeders":0,"leechers":1,"uploader":"jmanwf","files":2,"time":1452164109,"description":"Scott and Stiles must strive to figure out what’s behind the mysterious infection that’s killing the town sheriff in spite of their deep rift.\r\n\r\n\r\n\r\nVideo\r\nID : 2\r\nFormat : AVC\r\nFormat/Info : Advanced Video Codec\r\nFormat profile :   \r\nFormat settings, CABAC : Yes\r\nFormat settings, ReFrames : 4 frames\r\nCodec ID : avc1\r\nCodec ID/Info : Advanced Video Coding\r\nDuration : 41mn 54s\r\nBit rate : 4 888 Kbps\r\nWidth : 1 916 pixels\r\nHeight : 1 076 pixels\r\nDisplay aspect ratio : 16:9\r\nFrame rate mode : Constant\r\nFrame rate : 23.976 fps\r\nColor space : YUV\r\nChroma subsampling : 4:2:0\r\nBit depth : 8 bits\r\nScan type : Progressive\r\nBits/(Pixel*Frame) : 0.099\r\nStream size : 1.43 GiB (91%)\r\nLanguage : English\r\nEncoded date : UTC 2016-01-06 09:59:26\r\nTagged date : UTC 2016-01-06 10:03:03\r\nColor range : Limited\r\nColor primaries : BT.709\r\nTransfer characteristics : BT.709\r\nMatrix coefficients : BT.709\r\n\r\nAudio #1\r\nID : 1\r\nFormat : AAC\r\nFormat/Info : Advanced Audio Codec\r\nFormat profile : LC\r\nCodec ID : 40\r\nDuration : 41mn 54s\r\nBit rate mode : Variable\r\nBit rate : 125 Kbps\r\nMaximum bit rate : 198 Kbps\r\nChannel(s) : 2 channels\r\nChannel positions : Front: L R\r\nSampling rate : 48.0 KHz\r\nCompression mode : Lossy\r\nStream size : 37.6 MiB (2%)\r\nLanguage : English\r\nEncoded date : UTC 2016-01-06 09:59:26\r\nTagged date : UTC 2016-01-06 10:03:03\r\n\r\nAudio #2\r\nID : 3\r\nFormat : AC-3\r\nFormat/Info : Audio Coding 3\r\nMode extension : CM (complete main)\r\nFormat settings, Endianness : Big\r\nCodec ID : ac-3\r\nDuration : 41mn 54s\r\nBit rate mode : Constant\r\nBit rate : 384 Kbps\r\nChannel(s) : 6 channels\r\nChannel positions : Front: L C R, Side: L R, LFE\r\nSampling rate : 48.0 KHz\r\nBit depth : 16 bits\r\nCompression mode : Lossy\r\nStream size : 115 MiB (7%)\r\nLanguage : English\r\nEncoded date : UTC 2016-01-06 09:59:26\r\nTagged date : UTC 2016-01-06 10:03:03\r\n\r\nText\r\nID : 4-CC1\r\nFormat : EIA-608\r\nMuxing mode : Final Cut\r\nCodec ID : c608\r\nDuration : 41mn 17s\r\nBit rate mode : Constant\r\nStream size : 0.00 Byte (0%)\r\nLanguage : English\r\nEncoded date : UTC 2016-01-06 09:59:26\r\nTagged date : UTC 2016-01-06 09:59:33","torrent":{"xt":"urn:btih:817756b5f4e2d48be5d53fb5f0b9691d2622d579","amp;dn":"Teen+Wolf+S05E11+The+Last+Chimera+1080P+WEB-DL+DD5+1+H+264","amp;tr":["udp%3A%2F%2Ftracker.leechers-paradise.org%3A6969","udp%3A%2F%2Fzer0day.ch%3A1337","udp%3A%2F%2Fopen.demonii.com%3A1337","udp%3A%2F%2Ftracker.coppersurfer.tk%3A6969","udp%3A%2F%2Fexodus.desync.com%3A6969"],"infoHash":"817756b5f4e2d48be5d53fb5f0b9691d2622d579","infoHashBuffer":{"type":"Buffer","data":[129,119,86,181,244,226,212,139,229,213,63,181,240,185,105,29,38,34,213,121]},"announce":[],"urlList":[]}}